<?xml version="1.0"?>
<svg xmlns="http://www.w3.org/2000/svg" xmlns:xlink="http://www.w3.org/1999/xlink" xmlns:svgjs="http://svgjs.com/svgjs" version="1.1" width="512" height="512" x="0" y="0" viewBox="0 0 512 512" style="enable-background:new 0 0 512 512" xml:space="preserve"><g><g xmlns="http://www.w3.org/2000/svg"><path d="m75 338h272c41.353 0 75-33.647 75-75v-150c0-41.353-33.647-75-75-75h-272c-41.353 0-75 33.647-75 75v270h30c0-24.814 20.186-45 45-45zm135-225h62v30h-62zm0 60h152v30h-152zm0 60h152v30h-152zm-90-30c-24.814 0-45-20.186-45-45 0-19.53 12.578-36.024 30-42.237v-32.763h30v32.763c17.422 6.213 30 22.707 30 42.237h-30c0-8.276-6.724-15-15-15s-15 6.724-15 15 6.724 15 15 15c24.814 0 45 20.186 45 45 0 19.53-12.578 36.024-30 42.237v32.763h-30v-32.763c-17.422-6.213-30-22.707-30-42.237h30c0 8.276 6.724 15 15 15s15-6.724 15-15-6.724-15-15-15z" fill="#ffdf80" data-original="#000000" style=""/><path d="m452 129.518v133.482c0 57.891-47.109 105-105 105h-255.482c6.969 34.191 37.266 60 73.482 60h272c24.814 0 45 21.186 45 46h30v-271c0-36.216-25.809-66.513-60-73.482z" fill="#ffdf80" data-original="#000000" style=""/></g></g></svg>
