<?xml version="1.0"?>
<svg xmlns="http://www.w3.org/2000/svg" xmlns:xlink="http://www.w3.org/1999/xlink" xmlns:svgjs="http://svgjs.com/svgjs" version="1.1" width="512" height="512" x="0" y="0" viewBox="0 0 64 64" style="enable-background:new 0 0 512 512" xml:space="preserve" class=""><g><path xmlns="http://www.w3.org/2000/svg" d="m52.875 31.242c-.119-.101-.295-.108-.422-.016l-2.494 1.797c-.32.23-.748.253-1.09.052-.342-.2-.533-.583-.488-.976l.097-.853c.021-.187-.089-.287-.156-.33-.068-.043-.204-.103-.364-.004-.059.036-.105.09-.134.153l-2.602 4.669 2.314 2.705c1.436-.664 3.495-1.99 4.249-2.883l2.359-2.794c.08-.095.085-.197.08-.25-.004-.053-.025-.153-.12-.232z" fill="#ffdf80" data-original="#000000" style="" class=""/><path xmlns="http://www.w3.org/2000/svg" d="m11.968 10.713c.127-.423.516-.713.958-.713.049 0 4.965-.013 9.804-.98 2.995-.599 4.351-3.4 4.894-5.02h-9.698c-.062-.001-.128-.001-.195-.001-2.211 0-7.646.359-9.366 2.061-.393.388-.439.722-.439.94 0 3.538 1.1 7.857 1.953 10.677z" fill="#ffdf80" data-original="#000000" style="" class=""/><path xmlns="http://www.w3.org/2000/svg" d="m8 54v-1h-3v3c0 .552.448 1 1 1h3v-2c-.553 0-1-.447-1-1z" fill="#ffdf80" data-original="#000000" style="" class=""/><path xmlns="http://www.w3.org/2000/svg" d="m37.107 38.179-9.719-11.329-4.388-1.462v20.612h-2v-22h-2.044l1.939 7.758c.059.231.031.476-.075.689l-2 4c-.17.339-.515.553-.894.553s-.725-.214-.895-.553l-2-4c-.106-.214-.134-.458-.075-.689l1.94-7.758h-1.97v22h-2v-20.717l-6.012 1.518-2.792 24.199h3.878v-14h2v16h1v9h6v-6h2v6h5v-9h1.926v-17c0-.403.243-.768.615-.923.372-.154.802-.071 1.089.213l8.607 8.537 9.88-3.968-3.137-3.667z" fill="#ffdf80" data-original="#000000" style="" class=""/><path xmlns="http://www.w3.org/2000/svg" d="m25.139 20.878c.429-.642.539-1.462.295-2.194l-.275-.825c-.154-.464-.232-.944-.232-1.43v-6.054c-.544.262-1.14.473-1.804.606-3.954.791-7.853.969-9.449 1.008l-2.216 7.387 1.968 2.624h9.616c.845 0 1.629-.419 2.097-1.122z" fill="#ffdf80" data-original="#000000" style="" class=""/><path xmlns="http://www.w3.org/2000/svg" d="m17.926 33.764.94-1.88-.94-3.761-.941 3.761z" fill="#ffdf80" data-original="#000000" style="" class=""/><path xmlns="http://www.w3.org/2000/svg" d="m56 15.387v8.613h-2v-12h-16v12h-2v2h24v-2-7.279zm-8 8.613v-6h-4v6h-2v-7c0-.553.447-1 1-1h6c.553 0 1 .447 1 1v7z" fill="#ffdf80" data-original="#000000" style="" class=""/><path xmlns="http://www.w3.org/2000/svg" d="m53.412 9.627c-.259-.189-.412-.488-.412-.809v-4.818h-2v1.909c0 .376-.211.721-.546.892-.336.168-.738.139-1.042-.083l-3.412-2.482-7.925 5.764h15.85z" fill="#ffdf80" data-original="#000000" style="" class=""/></g></svg>
